<svg version="1.1" id="Layer_1" xmlns:x="ns_extend;" xmlns:i="ns_ai;" xmlns:graph="ns_graphs;" xmlns="http://www.w3.org/2000/svg" xmlns:xlink="http://www.w3.org/1999/xlink" x="0px" y="0px" viewBox="0 0 361.2 85" style="enable-background:new 0 0 361.2 85;" xml:space="preserve">
 <style type="text/css">
  .st0{fill-rule:evenodd;clip-rule:evenodd;fill:#0062FF;}
 </style>
 <metadata>
  <sfw xmlns="ns_sfw;">
   <slices>
   </slices>
   <sliceSourceBounds bottomLeftOrigin="true" height="85" width="361.2" x="-138.1" y="-32.5">
   </sliceSourceBounds>
  </sfw>
 </metadata>
 <g id="Page-1">
  <g id="Artboard" transform="translate(-74.000000, -126.000000)">
   <g id="Group-3" transform="translate(74.000000, 114.000000)">
    <g id="Group-4" transform="translate(0.000000, 12.000000)">
     <path id="D-Copy" class="st0" d="M0,77.3C0,82,3,85,7.7,85l22.4,0c13.4,0,24.3-4.5,31.7-12.4H0V77.3z M30.1,0L7.7,0
					C3,0,0,3,0,7.7v4.8h61.8C54.3,4.5,43.4,0,30.1,0z M49.6,54.6c0,3.8,2.4,6.2,6.2,6.2h13.4c1.5-3.8,2.5-7.9,3-12.4H55.8
					C52,48.4,49.6,50.9,49.6,54.6z M31,30.4c0,3.8,2.4,6.2,6.2,6.2h35c-0.5-4.5-1.5-8.6-3-12.4h-32C33.4,24.2,31,26.7,31,30.4z
					 M37.2,54.6c0-3.8-2.4-6.2-6.2-6.2H0v12.4h31C34.8,60.8,37.2,58.4,37.2,54.6z M18.6,30.4c0-3.8-2.4-6.2-6.2-6.2H0v12.4h12.4
					C16.2,36.6,18.6,34.2,18.6,30.4z">
     </path>
     <g id="logo" transform="translate(24.000000, 3.000000)">
      <g id="Group">
       <path id="Fill-4" class="st0" d="M133.6,38.2c1-4.9,4.2-7.3,8.5-7.3c4.2,0,7.3,2.6,8.2,7.3H133.6z M142.2,22.5
							c-10.8,0-17.5,8.6-17.5,19.2c0,10.9,7.2,19.1,17.8,19.1c7.3,0,11.8-3.4,14.6-7.7l-6.9-4.4c-1.7,2.4-4.5,3.6-7.4,3.6
							c-4.8,0-8.1-2.3-9.2-6.8h18.1c0,0,0,0,0,0l6.6,0c0.3-1.2,0.4-2.4,0.4-3.8C158.8,32.5,153.1,22.5,142.2,22.5z">
       </path>
       <path id="Fill-6" class="st0" d="M97.1,52.2c-6.6,0-10.6-4.8-10.6-10.6c0-5.9,4.1-10.6,10.6-10.6s10.6,4.8,10.6,10.6
							C107.8,47.5,103.8,52.2,97.1,52.2z M107,28.1c-2.6-3.2-6.4-5.1-11.1-5.1C85.5,23,78,31.4,78,41.9c0,10.4,7.4,18.9,17.9,18.9
							c4.7,0,8.4-2,11.1-5.1v4.2h9.2V9.8H107V28.1z">
       </path>
       <path id="Combined-Shape" class="st0" d="M187,41c2.5,1.7,4.1,4.4,4.1,7.8c0,7-4.7,11.8-13.5,11.8c-8.3,0-12.7-4.3-14.5-8.5
							l7.6-4.4c0,0,1,4.6,6.8,4.6c3.6,0,4.6-1.6,4.6-3c0-0.6-0.2-1.8-2.7-2.8c-5.1-2-14.9-2.9-14.9-12.1c0-7.5,5.9-11.5,13.1-11.5
							c6.8,0,11.1,4.2,12.8,7.5l-7.4,4.4c0,0-1.4-3.6-5.3-3.6s-4.2,2.2-4.2,2.9c0,1.9,1.9,2.6,6,3.9C181.9,38.6,184.4,39.3,187,41
							C187,41,187,41,187,41z M337.2,32.8h-7.7v14.8c0,4.6,4.5,3.6,7.7,3.6v8.4c0,0-1.7,0.3-4.6,0.3c-6.6,0-11.9-2-11.9-12.3V32.8
							h-5.9V24h5.9V14h8.8v10h7.7V32.8z M213,51.7c3.7,0,6.5-1.8,7.9-4.8l7.6,4.6c-3,5.5-8.6,9.3-15.5,9.3
							c-10.6,0-17.9-8.4-17.9-18.8c0-10.4,7.4-18.8,17.9-18.8c6.9,0,12.4,3.8,15.4,9.2l-7.6,4.7c-1.4-3-4.2-4.8-7.8-4.8
							c-5.3,0-9.1,4.4-9.1,9.8C203.8,47.3,207.6,51.7,213,51.7z">
       </path>
       <path id="Combined-Shape_1_" class="st0" d="M294,51.6c-5.7,0-9.2-4.5-9.2-10s3.5-10,9.2-10c5.7,0,9.2,4.5,9.2,10
							S299.7,51.6,294,51.6 M295.1,22.9c9.7,0,16.7,8.4,16.7,18.7c0,10.3-6.9,18.7-16.7,18.7c-4.3,0-7.8-1.9-10.3-5.1v18.3h-8.6
							V23.9h8.6V28C287.3,24.8,290.8,22.9,295.1,22.9z M259.8,59.4V23.9h8.6v35.5H259.8z M243.8,30c1.7-4.3,5-6.8,10.1-6.8v10.2
							c-5.9-0.6-10.2,2.6-10.1,10c0,0,0,0,0,0v16h-8.6V23.9h8.6V30z M259.8,19.2V9.8h8.8v9.5H259.8z">
       </path>
      </g>
     </g>
    </g>
   </g>
  </g>
 </g>
</svg>