<?xml version="1.0" standalone="no"?>
<!DOCTYPE svg PUBLIC "-//W3C//DTD SVG 20010904//EN"
 "http://www.w3.org/TR/2001/REC-SVG-20010904/DTD/svg10.dtd">
<svg version="1.0" xmlns="http://www.w3.org/2000/svg"
 width="500.000000pt" height="500.000000pt" viewBox="0 0 500.000000 500.000000"
 preserveAspectRatio="xMidYMid meet">
<metadata>
Created by potrace 1.14, written by Peter Selinger 2001-2017
</metadata>
<g transform="translate(0.000000,500.000000) scale(0.100000,-0.100000)"
fill="#000000" stroke="none">
<path d="M1545 3745 c-114 -22 -237 -63 -331 -111 -274 -139 -510 -412 -617
-711 -63 -175 -87 -488 -52 -672 49 -256 170 -487 346 -661 250 -249 510 -349
869 -337 173 7 267 24 424 81 145 52 245 115 351 221 106 107 178 206 269 369
59 104 232 459 257 524 l9 23 57 -39 c398 -268 764 -314 1039 -130 92 61 152
134 209 252 96 199 107 384 36 594 -41 118 -84 185 -186 288 -75 76 -104 98
-175 132 -112 53 -174 67 -300 66 -122 0 -191 -16 -329 -76 -168 -74 -338
-203 -438 -332 l-30 -40 -94 85 c-278 250 -549 399 -839 459 -138 29 -363 36
-475 15z m360 -151 c112 -19 268 -70 374 -124 45 -22 81 -42 81 -44 0 -3 -37
13 -82 34 -209 97 -420 138 -640 126 -394 -23 -680 -205 -856 -546 -18 -36
-30 -54 -27 -40 4 14 28 64 53 112 107 205 271 352 479 428 213 77 385 92 618
54z m1844 -25 c-186 -18 -372 -104 -527 -244 -60 -54 -70 -61 -45 -30 140 179
350 285 563 283 l95 -1 -86 -8z m-1319 -185 c0 -2 -9 0 -20 6 -11 6 -20 13
-20 16 0 2 9 0 20 -6 11 -6 20 -13 20 -16z m-465 -166 c161 -39 362 -155 605
-348 63 -51 119 -95 123 -100 10 -9 -27 -84 -121 -250 -200 -354 -380 -539
-599 -615 -98 -34 -250 -48 -333 -31 -193 41 -387 174 -478 328 -192 325 -87
763 228 948 161 95 366 119 575 68z m1889 -36 c42 -29 93 -88 122 -142 14 -26
19 -56 19 -120 0 -75 -4 -91 -30 -139 -37 -67 -89 -106 -163 -122 -52 -10
-155 -8 -222 6 -14 3 0 -4 30 -16 76 -30 276 -34 331 -6 51 25 104 81 130 135
28 61 24 175 -10 240 -12 23 -17 42 -11 42 21 0 63 -105 68 -171 4 -56 1 -75
-20 -120 -33 -73 -66 -109 -130 -144 -48 -27 -61 -30 -148 -30 -72 1 -112 6
-165 24 -99 33 -215 88 -215 102 0 7 -3 10 -6 7 -3 -3 -17 5 -31 18 -14 13
-31 24 -36 24 -6 0 -2 -7 9 -16 18 -14 18 -15 -4 -4 -12 6 -20 14 -18 19 3 4
-15 23 -39 42 -24 18 -44 37 -45 40 0 10 68 107 112 161 78 94 211 177 315
197 64 12 110 4 157 -27z m-1185 -809 c-155 -257 -327 -410 -541 -484 -50 -17
-114 -30 -158 -33 l-75 -5 60 9 c239 38 474 202 670 468 33 45 61 82 63 82 2
0 -7 -17 -19 -37z"/>
<path d="M1657 3160 c-179 -24 -360 -150 -431 -300 l-17 -35 23 30 c61 82 169
158 273 193 86 29 225 46 320 38 71 -6 244 -37 292 -52 41 -13 -24 29 -102 66
-114 54 -243 76 -358 60z"/>
<path d="M2526 2693 c-94 -191 -215 -383 -306 -486 -54 -60 -138 -126 -215
-165 -73 -38 -69 -40 15 -7 147 58 250 141 352 285 62 87 155 238 211 341 l47
86 -23 21 c-13 12 -25 22 -28 22 -2 0 -26 -44 -53 -97z"/>
<path d="M3430 3633 c-249 -90 -377 -161 -529 -293 l-24 -21 23 -24 23 -25 66
63 c102 98 223 183 355 248 105 52 135 70 86 52z"/>
<path d="M4265 2297 c-166 -172 -445 -219 -778 -132 -84 22 -89 22 -67 5 38
-30 158 -86 225 -106 90 -27 249 -25 340 5 120 39 225 113 289 205 74 106 74
108 -9 23z"/>
</g>
</svg>
